<?xml version="1.0" encoding="UTF-8"?>
<svg version="1.1" xmlns="http://www.w3.org/2000/svg" width="32" height="32">
<path d="M0 0 C0 9.24 0 18.48 0 28 C-10.73849083 30.3863313 -15.58873828 30.60281543 -26 28 C-26 18.76 -26 9.52 -26 0 C-15.58873828 -2.60281543 -10.73849083 -2.3863313 0 0 Z " fill="#15070F" transform="translate(29,2)"/>
<path d="M0 0 C0 9.24 0 18.48 0 28 C-3.3 27.34 -6.6 26.68 -10 26 C-10 18.08 -10 10.16 -10 2 C-3 0 -3 0 0 0 Z " fill="#4073FD" transform="translate(15,2)"/>
<path d="M0 0 C8 1 8 1 11 2 C11 9.92 11 17.84 11 26 C10.01 26 9.02 26 8 26 C8 22.7 8 19.4 8 16 C7.01 16 6.02 16 5 16 C5 19.96 5 23.92 5 28 C3.35 28 1.7 28 0 28 C0 18.76 0 9.52 0 0 Z " fill="#EF0000" transform="translate(16,2)"/>
<path d="M0 0 C0 0.66 0 1.32 0 2 C-2.97 2.66 -5.94 3.32 -9 4 C-9.33 12.58 -9.66 21.16 -10 30 C-10.66 30 -11.32 30 -12 30 C-12 20.76 -12 11.52 -12 2 C-4 0 -4 0 0 0 Z " fill="#0D1835" transform="translate(15,0)"/>
<path d="M0 0 C1.39613065 0.14295891 2.79189308 0.28951558 4.1875 0.4375 C4.96480469 0.51871094 5.74210937 0.59992188 6.54296875 0.68359375 C9.06001996 1.00772912 11.5177143 1.47532505 14 2 C14.11624638 10.73139464 13.89115181 19.31126982 13 28 C12.67 28 12.34 28 12 28 C11.3023126 19.85315786 10.71837374 12.11696631 12 4 C6.06 3.01 6.06 3.01 0 2 C0 1.34 0 0.68 0 0 Z " fill="#340000" transform="translate(15,0)"/>
<path d="M0 0 C0.33 0 0.66 0 1 0 C1 9.9 1 19.8 1 30 C-8 29 -8 29 -10 28 C-10 27.34 -10 26.68 -10 26 C-5.05 26.99 -5.05 26.99 0 28 C0 18.76 0 9.52 0 0 Z " fill="#0C0D1F" transform="translate(15,2)"/>
<path d="M0 0 C0.99 0 1.98 0 3 0 C3 2.31 3 4.62 3 7 C2.01 7 1.02 7 0 7 C0 4.69 0 2.38 0 0 Z " fill="#160A16" transform="translate(21,7)"/>
</svg>
